<svg xmlns="http://www.w3.org/2000/svg" viewBox="0 0 89.11 89.11"><defs><style>.cls-1{fill:#1c195b;}</style></defs><g id="Layer_2" data-name="Layer 2"><g id="Layer_31" data-name="Layer 31"><path class="cls-1" d="M87.37,69.78A55.65,55.65,0,0,0,48.23,86.14a1.73,1.73,0,0,0,0,2.46,1.7,1.7,0,0,0,1.22.51,1.77,1.77,0,0,0,1.24-.51A52.07,52.07,0,0,1,87.37,73.27a1.75,1.75,0,0,0,0-3.49"/><path class="cls-1" d="M51.08,68.17a1.75,1.75,0,0,0-2.42-.46A68.51,68.51,0,0,0,30,86.4a1.74,1.74,0,0,0,.47,2.41,1.68,1.68,0,0,0,1,.3,1.75,1.75,0,0,0,1.45-.77A65,65,0,0,1,50.61,70.59a1.75,1.75,0,0,0,.47-2.42"/><path class="cls-1" d="M87.37,55.77a68.5,68.5,0,0,0-22.89,3.95,1.74,1.74,0,0,0,.58,3.38,1.69,1.69,0,0,0,.58-.1,65.22,65.22,0,0,1,21.73-3.75,1.74,1.74,0,0,0,0-3.48"/><path class="cls-1" d="M39.51,52V39.27H55.93v9.81a79.6,79.6,0,0,0-8.72,4.23c-.91.5-1.8,1-2.68,1.57-1.64-1-3.32-2-5-2.84m-9.4-4.15c-1.38-.5-2.77-1-4.18-1.41V45.16h4.18ZM20,39.27H36V50.34c-.81-.37-1.62-.73-2.44-1.07V43.42a1.74,1.74,0,0,0-1.74-1.74H24.19a1.74,1.74,0,0,0-1.74,1.74v2.07q-1.21-.32-2.43-.6Zm8-9.07,5.56,5.6H22.46Zm25.46,5.6h-15l-6.28-6.33h15Zm-48-13.52a16.29,16.29,0,0,1,5.63-12,16.28,16.28,0,0,1,5.62,12,15.76,15.76,0,0,1-3.88,10.19V20.89a1.74,1.74,0,1,0-3.48,0V32.47A15.72,15.72,0,0,1,5.51,22.28M62.9,20.65c0-6.18,2.83-12,8-16.63,5.17,4.59,8,10.45,8,16.63a21.7,21.7,0,0,1-6.26,15V22.28a1.75,1.75,0,0,0-3.49,0V35.61a21.7,21.7,0,0,1-6.26-15m-38,56.52A79.26,79.26,0,0,1,71.25,48h0a77.29,77.29,0,0,1,16.11-1.7,1.74,1.74,0,1,0,0-3.48,82.32,82.32,0,0,0-14.72,1.33V40.39c6.29-5.33,9.74-12.31,9.74-19.74C82.39,13,78.7,5.77,72,.38a1.74,1.74,0,0,0-2.18,0C63.11,5.77,59.42,13,59.42,20.65c0,7.43,3.45,14.41,9.74,19.74v4.47a81.91,81.91,0,0,0-9.76,2.87V37.53a1.69,1.69,0,0,0-.5-1.22L49.16,26.5A1.74,1.74,0,0,0,47.92,26H28a1.72,1.72,0,0,0-1.23.51L17,36.31a1.74,1.74,0,0,0-.51,1.22v6.65c-1.21-.22-2.43-.42-3.65-.58V37.39a19.85,19.85,0,0,0,7.37-15.11c0-5.94-2.85-11.5-8-15.66a1.74,1.74,0,0,0-2.18,0c-5.17,4.16-8,9.72-8,15.66A19.85,19.85,0,0,0,9.4,37.39V43.2c-2.54-.24-5.09-.37-7.66-.37a1.75,1.75,0,0,0,0,3.49A78.45,78.45,0,0,1,41.27,57a81.73,81.73,0,0,0-8.22,6.38A69.3,69.3,0,0,0,1.74,55.8a1.74,1.74,0,1,0,0,3.48A65.59,65.59,0,0,1,30.31,65.9a83.37,83.37,0,0,0-7.4,8.19A54.41,54.41,0,0,0,1.74,69.81a1.74,1.74,0,1,0,0,3.48,50.91,50.91,0,0,1,19,3.68q-1.82,2.5-3.43,5.15l-2.65,4.34a1.74,1.74,0,0,0,.58,2.39,1.67,1.67,0,0,0,.9.26,1.74,1.74,0,0,0,1.49-.83l2.66-4.35a76,76,0,0,1,4.46-6.54,1.24,1.24,0,0,0,.18-.22"/><path class="cls-1" d="M70.9,17.4a1.75,1.75,0,0,0,1.24-3,1.8,1.8,0,0,0-1.24-.51,1.75,1.75,0,0,0-1.22.51,1.74,1.74,0,0,0,0,2.46,1.71,1.71,0,0,0,1.22.51"/><path class="cls-1" d="M55.8,63.57a1.74,1.74,0,0,0,0,2.46,1.74,1.74,0,0,0,2.46,0,1.74,1.74,0,1,0-2.46-2.46"/></g></g></svg>